<svg xmlns="http://www.w3.org/2000/svg" width="144" height="40" fill="none"><path fill="#9D9D9D" fill-rule="evenodd" d="M0 19.828C0 13.29 5.288 8 11.82 8c6.533 0 11.821 5.291 11.85 11.8 0 6.536-5.26 11.827-11.793 11.827l4.242-5.942c.283-.396.396-.849.311-1.33a1.774 1.774 0 0 0-.735-1.16 1.797 1.797 0 0 0-2.489.424l-5.231 7.357a11.385 11.385 0 0 1-1.697-.735l8.06-11.29c.282-.397.396-.85.31-1.33a1.774 1.774 0 0 0-.735-1.16 1.797 1.797 0 0 0-2.488.424L3.422 28.118c-.396-.424-.792-.849-1.131-1.33l3.025-4.272c.283-.396.396-.85.312-1.33a1.774 1.774 0 0 0-.736-1.16 1.716 1.716 0 0 0-1.329-.312 1.78 1.78 0 0 0-1.16.736L.482 23.166A11.764 11.764 0 0 1 0 19.828zm74.346-.212c0-1.528-.368-2.688-1.046-3.48-.679-.792-1.754-1.188-3.224-1.16-.537 0-1.046.113-1.584.311a3.578 3.578 0 0 0-1.329.849v-4.47a.576.576 0 0 0-.17-.425c-.084-.113-.226-.17-.424-.17h-1.753a.575.575 0 0 0-.424.17c-.113.085-.17.226-.17.424v13.752c0 .17.057.311.17.424.085.114.226.17.424.17h1.753c.17 0 .311-.056.424-.17.114-.085.17-.226.17-.424v-5.15c-.028-.99.17-1.726.566-2.179a1.922 1.922 0 0 1 1.499-.679c.65 0 1.187.17 1.555.538.367.368.565.905.565 1.67v5.828c0 .17.057.311.17.425.085.113.226.17.424.17h1.81c.17 0 .311-.057.424-.17.114-.085.17-.227.17-.425v-5.829zm-20.191 5.32c-.17-.113-.255-.255-.255-.424 0-.142.057-.255.142-.396l.848-1.132c.141-.17.283-.255.452-.255.142 0 .255.028.368.085.48.255.99.481 1.499.622a4.99 4.99 0 0 0 1.527.227c.452 0 .82-.085 1.103-.283.282-.198.452-.425.452-.68 0-.254-.141-.424-.424-.565-.263-.132-.575-.19-.981-.266l-.094-.017-.622-.085c-.905-.142-1.612-.311-2.149-.51a3.699 3.699 0 0 1-1.442-.961c-.481-.481-.707-1.132-.707-1.953 0-1.245.452-2.122 1.329-2.66.877-.537 1.951-.792 3.139-.792.763 0 1.47.085 2.12.283.651.198 1.273.51 1.896.905.197.114.282.255.282.425 0 .113-.056.255-.17.396l-.82 1.104c-.14.17-.282.254-.452.254a.782.782 0 0 1-.367-.085c-.905-.48-1.782-.735-2.574-.735a2.31 2.31 0 0 0-.99.226c-.282.142-.452.34-.452.594 0 .283.17.51.537.623.368.141.877.255 1.499.34 1.046.197 1.838.367 2.347.537.51.17.962.481 1.358.905.424.482.622 1.16.622 2.01 0 1.131-.396 2.008-1.16 2.631-.763.623-1.866.905-3.308.905a7.273 7.273 0 0 1-4.553-1.273zm-15.95.51c0 .17.057.31.17.424.113.113.254.141.396.17h1.725c.17 0 .31-.057.424-.17.113-.085.17-.227.17-.425v-9.677a.576.576 0 0 0-.17-.424c-.085-.113-.226-.17-.424-.17H38.77a.575.575 0 0 0-.424.17c-.114.085-.17.226-.17.424v.538c-.311-.425-.764-.736-1.33-.99-.565-.255-1.215-.368-1.95-.368-1.132 0-2.093.254-2.913.764a5.25 5.25 0 0 0-1.895 2.037c-.424.849-.65 1.81-.65 2.886 0 1.047.226 2.01.65 2.858a4.785 4.785 0 0 0 1.895 2.066c.848.48 1.81.735 2.913.735a5.15 5.15 0 0 0 1.98-.396c.621-.255 1.074-.566 1.328-.934v.481zm-2.828-7.924c.877 0 1.612.284 2.15.85.537.565.82 1.301.791 2.235 0 .934-.254 1.698-.791 2.235-.538.538-1.245.82-2.178.82-.877 0-1.584-.282-2.15-.848-.536-.566-.82-1.302-.82-2.207 0-.934.284-1.67.82-2.236.538-.566 1.273-.848 2.178-.848zm7.268-1.725v5.829c0 3.084 1.442 4.64 4.27 4.64.566 0 1.103-.113 1.612-.311a3.705 3.705 0 0 0 1.3-.849v.34c0 .17.057.31.17.424.085.113.227.17.425.17h1.781c.17 0 .311-.057.424-.17.114-.085.17-.226.17-.425v-9.648a.576.576 0 0 0-.17-.425c-.084-.113-.226-.17-.424-.17h-1.781a.575.575 0 0 0-.424.17c-.114.085-.17.227-.17.425v5.15c.056.962-.142 1.669-.538 2.15-.395.481-.904.707-1.526.707-.68 0-1.188-.198-1.556-.537-.367-.34-.566-.877-.566-1.641v-5.83a.576.576 0 0 0-.17-.424c-.084-.113-.225-.17-.423-.17h-1.81a.575.575 0 0 0-.424.17c-.113.085-.17.227-.17.425zM84.244 25.87a.576.576 0 0 1-.17-.425v-.48c-.254.367-.707.678-1.33.933a5.151 5.151 0 0 1-1.979.396c-1.103 0-2.064-.254-2.912-.736a4.785 4.785 0 0 1-1.895-2.065c-.424-.849-.65-1.811-.65-2.858 0-1.075.226-2.037.65-2.886a5.25 5.25 0 0 1 1.895-2.037c.82-.51 1.781-.764 2.912-.764.736 0 1.386.113 1.952.367.565.255 1.018.566 1.329.99v-.537c0-.198.056-.34.17-.424a.575.575 0 0 1 .424-.17h1.725c.198 0 .339.057.424.17.113.113.17.254.17.424v9.677c0 .198-.057.34-.17.425a.575.575 0 0 1-.424.17h-1.697c-.17-.029-.311-.057-.424-.17zm-.877-7.499c-.537-.566-1.273-.848-2.15-.848-.904 0-1.64.282-2.177.848-.537.566-.82 1.302-.82 2.236 0 .905.283 1.64.82 2.207.566.566 1.273.849 2.15.849.933 0 1.64-.283 2.177-.82.537-.538.792-1.302.792-2.236.028-.934-.226-1.67-.792-2.236z" clip-rule="evenodd"/></svg>