<svg xmlns="http://www.w3.org/2000/svg" width="144" height="40" fill="none"><path fill="#9D9D9D" d="M0 3h32.972v33.817H0V3zm28.548 24.46a5.543 5.543 0 0 0 0 .216h.473v1.346h.259v-1.346h.474v-.215h-1.206zm1.507 0a369.2 369.2 0 0 0 0 1.562h.258c.002-.426-.003-.852.003-1.279.172.423.328.852.492 1.278h.167c.166-.427.324-.858.495-1.283.003.428 0 .856.002 1.284h.256c.004-.52 0-1.04.002-1.56-.13-.002-.261-.001-.392 0-.145.39-.293.78-.44 1.17-.149-.39-.3-.78-.448-1.171h-.395zM3.914 29.126c-.642.026-1.288.324-1.67.865-.329.454-.46 1.03-.457 1.588-.01.525.093 1.066.367 1.516.223.368.563.657.954.82.472.195 1 .23 1.497.126.46-.097.897-.345 1.197-.72.27-.331.428-.748.492-1.173a3.519 3.519 0 0 0-.092-1.483 2.134 2.134 0 0 0-.78-1.127c-.435-.316-.98-.441-1.508-.412zm4.392.666v-.547c-.385 0-.769-.002-1.153.001.002 1.572 0 3.144.001 4.716H8.39c.002-1.043-.002-2.087.003-3.13.05-.153.187-.264.325-.337.314-.153.67-.166 1.013-.17v-1.169c-.539-.051-1.077.222-1.424.636zm3.022-.508a2.042 2.042 0 0 0-1.045.786c.272.163.548.322.822.481.234-.297.58-.502.954-.532.268-.024.589-.01.78.213.136.159.096.381.101.574-.628.076-1.263.182-1.849.437-.33.147-.653.357-.848.677-.219.358-.24.817-.12 1.214.1.327.337.607.643.747.35.167.75.158 1.123.097a2.697 2.697 0 0 0 1.045-.424l.105.408h1.08c-.012-1.09-.004-2.18-.005-3.27.021-.322-.038-.662-.235-.92-.256-.35-.68-.516-1.09-.583-.485-.071-.99-.059-1.46.095zm6.015-.101c-.432.091-.81.34-1.163.6-.035-.184-.076-.368-.108-.553l-1.01.143v4.582h1.208v-3.377c.285-.243.611-.464.988-.512.19-.022.412-.01.55.143.136.163.158.39.164.596v3.15h1.215v-3.35a2.092 2.092 0 0 0-.11-.662 1.12 1.12 0 0 0-.571-.653c-.362-.168-.778-.182-1.163-.107zm3.155.686c-.37.513-.5 1.168-.488 1.796.005.573.13 1.173.485 1.63.28.37.72.6 1.173.649.33.032.684.018.98-.155.205-.117.35-.314.471-.515.01.198.003.397.005.595-.008.263-.045.549-.223.753-.162.184-.414.249-.648.25-.246.003-.512-.006-.725-.147-.106-.07-.16-.193-.192-.313l-1.198.198c.072.381.332.705.661.888.514.292 1.125.325 1.698.268.497-.05 1.021-.195 1.375-.578.318-.343.417-.832.424-1.29V29.23c-.342.002-.685-.006-1.027.003-.027.174-.06.347-.09.52-.106-.224-.313-.38-.534-.473a2.079 2.079 0 0 0-.926-.132c-.486.037-.937.319-1.22.72zm5.051-.035c-.333.406-.482.938-.519 1.46-.035.57.017 1.163.27 1.68.198.401.536.731.945.897.526.217 1.116.215 1.664.097.536-.12 1.04-.45 1.313-.947a156.89 156.89 0 0 1-.891-.507c-.133.196-.295.378-.505.487-.236.123-.512.139-.77.1a.886.886 0 0 1-.624-.398c-.168-.271-.214-.602-.216-.917h3.05a3.423 3.423 0 0 0-.12-1.238c-.129-.433-.39-.834-.766-1.078-.461-.306-1.037-.372-1.573-.308-.48.06-.948.286-1.258.672z"/><path fill="#9D9D9D" d="M26.497 30.263a.84.84 0 0 1 .585-.275c.28-.022.584.059.775.28.168.192.224.457.23.71-.617-.001-1.235 0-1.854-.002.02-.255.093-.519.264-.713zm-4.517-.221a.88.88 0 0 1 .795.256c.236.247.333.6.353.939.01.248 0 .498-.039.743-.043.259-.128.523-.31.714a.858.858 0 0 1-.641.246.765.765 0 0 1-.596-.23c-.203-.214-.27-.518-.302-.804a4.016 4.016 0 0 1 .003-.877c.035-.256.113-.515.28-.714a.784.784 0 0 1 .456-.273zm-18.115.147c.294-.045.624.005.855.212.216.191.322.48.37.762.05.317.047.643-.013.958-.055.277-.176.556-.4.73-.25.191-.586.225-.885.162a.892.892 0 0 1-.585-.434c-.18-.32-.22-.699-.212-1.062.012-.325.068-.664.249-.94a.89.89 0 0 1 .62-.388zm7.957 1.63c.344-.146.716-.21 1.084-.258v1.103c-.307.283-.7.505-1.123.497a.503.503 0 0 1-.379-.163.7.7 0 0 1-.068-.79c.106-.188.297-.305.486-.39z"/><path fill="#FED9BF" d="M32.972 3H33v33.846H0v-.028h32.972V3z"/><path fill="#fff" d="M28.548 27.46c.402.002.804 0 1.207.002v.215h-.475v1.346h-.259v-1.346h-.474a5.549 5.549 0 0 1 0-.216zm1.507 0h.395c.148.392.3.782.448 1.173.147-.39.296-.78.441-1.171h.392c-.001.52.002 1.04-.002 1.561a14.689 14.689 0 0 0-.256 0c-.002-.429 0-.857-.002-1.285-.17.426-.329.856-.495 1.284h-.167c-.165-.426-.32-.856-.493-1.279-.006.427-.001.853-.003 1.28h-.258V27.46zM3.914 29.123c.528-.029 1.074.097 1.509.413.376.27.646.678.78 1.126.142.478.16.99.091 1.484-.064.424-.22.841-.491 1.173-.3.375-.737.622-1.197.719a2.55 2.55 0 0 1-1.497-.126 2.027 2.027 0 0 1-.954-.82c-.274-.45-.378-.99-.368-1.516-.002-.558.129-1.134.458-1.588.382-.54 1.028-.838 1.67-.865zm-.05 1.066a.89.89 0 0 0-.62.388c-.181.275-.237.614-.249.94-.007.363.032.742.212 1.061a.89.89 0 0 0 .585.435c.299.063.634.028.885-.162.224-.175.345-.454.4-.73.06-.316.062-.642.012-.959-.047-.282-.153-.57-.37-.761-.23-.208-.56-.257-.854-.212zm4.443-.399c.347-.414.885-.687 1.424-.635v1.169c-.342.003-.699.016-1.013.17-.137.072-.275.183-.325.337-.005 1.043 0 2.086-.003 3.13l-1.235-.001v-4.716c.383-.003.768 0 1.152 0v.546zm3.021-.507c.47-.154.976-.166 1.461-.095.409.067.833.233 1.09.583.197.258.256.598.234.92.002 1.09-.007 2.18.006 3.27h-1.08l-.106-.408c-.315.212-.672.36-1.044.424-.373.061-.774.07-1.124-.096a1.213 1.213 0 0 1-.642-.748c-.121-.397-.099-.855.119-1.214.195-.32.518-.53.849-.677.586-.255 1.22-.36 1.849-.437-.005-.193.034-.415-.101-.574-.191-.223-.512-.237-.78-.213-.374.03-.72.235-.954.533-.275-.16-.55-.318-.823-.482.253-.37.627-.648 1.046-.786zm.493 2.536c-.19.084-.38.201-.485.389a.7.7 0 0 0 .068.79.502.502 0 0 0 .379.163c.423.008.815-.214 1.122-.497v-1.103c-.368.048-.74.112-1.084.258zm5.522-2.637c.385-.075.801-.061 1.163.107.269.124.473.37.571.654.076.21.106.436.11.66v3.351h-1.214v-3.15c-.007-.206-.029-.433-.165-.596-.138-.153-.361-.165-.55-.143-.377.048-.703.27-.988.512v3.377h-1.208v-4.582l1.01-.143c.032.185.073.369.108.553.353-.26.73-.509 1.163-.6zm3.154.686c.285-.401.735-.683 1.22-.72.314-.019.635.01.927.132.222.092.428.248.535.474.03-.174.062-.347.089-.52.342-.01.685-.003 1.027-.005v4.667c-.007.46-.106.948-.423 1.29-.355.383-.88.528-1.376.579-.573.056-1.184.024-1.697-.268a1.322 1.322 0 0 1-.662-.889l1.198-.197c.031.12.086.243.192.313.213.141.479.15.725.147.234-.001.486-.066.648-.25.178-.204.215-.49.223-.753-.002-.199.005-.397-.005-.596-.121.202-.266.399-.471.516-.296.172-.65.187-.98.154a1.708 1.708 0 0 1-1.173-.649c-.355-.456-.48-1.056-.485-1.629-.011-.628.118-1.283.488-1.796zm1.481.172a.784.784 0 0 0-.457.273c-.166.199-.244.459-.28.714-.037.29-.029.585-.002.877.032.286.1.59.302.804.15.167.379.238.596.23a.858.858 0 0 0 .64-.245c.183-.192.268-.456.311-.715.038-.245.049-.495.04-.743-.021-.339-.118-.691-.354-.94a.88.88 0 0 0-.796-.255zm3.572-.208c.31-.386.777-.612 1.257-.67.535-.065 1.112 0 1.573.306.376.245.637.646.765 1.079.117.4.156.822.121 1.238h-3.05c.002.315.048.646.216.916.137.22.373.362.623.399.259.038.534.023.77-.1.21-.109.373-.292.506-.487.296.17.593.34.891.507-.273.496-.777.826-1.314.946-.547.119-1.137.12-1.663-.096a1.845 1.845 0 0 1-.944-.898c-.255-.516-.307-1.11-.27-1.68.036-.521.185-1.053.518-1.46zm.948.43c-.171.194-.244.458-.264.713.618.002 1.236 0 1.853 0-.006-.25-.062-.516-.23-.708-.191-.222-.496-.302-.775-.28a.84.84 0 0 0-.584.275z"/></svg>