<svg xmlns="http://www.w3.org/2000/svg" width="144" height="40" fill="none"><g fill="#9D9D9D" clip-path="url(#a)"><path d="M76.627 30.863c4.134 0 7.392-3.129 7.392-7.134 0-4.006-3.258-7.135-7.392-7.135-4.135 0-7.392 3.129-7.392 7.134 0 4.069 3.257 7.135 7.392 7.135zm0-11.766c2.63 0 4.636 2.003 4.636 4.631 0 2.754-1.942 4.694-4.636 4.694s-4.636-2.002-4.636-4.694c0-2.69 1.942-4.63 4.636-4.63zM54.576 30.676v-13.77h1.629l7.955 8.763v-8.762h2.694v13.769h-1.566l-7.956-8.825v8.825h-2.756zm35.206-.063L84.52 16.907h2.882l.063.187 3.194 8.7 3.571-8.887h1.504v.062l3.508 8.825 3.195-8.887h2.881l-5.262 13.769h-1.503l-3.634-9.2-3.633 9.2-1.504-.063zm27.063 1.565V15.78l-13.594-7.698h6.578l10.274 5.82v10.515l16.726-16.335h4.636l-24.62 24.096zm-89.27-1.503V16.906h10.211v2.379h-7.58v3.129h6.891v2.316h-6.89v3.504h7.58v2.378H27.574v.063zm-27 0V16.906h10.023v2.379H3.206v3.191h6.766v2.379H3.206v5.82H.576zm20.673-5.633c2.005-.563 3.195-2.065 3.195-3.943 0-2.44-2.067-4.193-4.949-4.193h-5.951v13.77h2.694V25.23h2.13l3.695 5.445h3.07l-3.884-5.633zm-5.012-2.19v-3.567h3.195c1.441 0 2.318.688 2.318 1.814 0 1.127-.877 1.753-2.318 1.753h-3.195zm24.683 7.823V16.906H51.13v2.379h-7.58v3.129h6.89v2.316h-6.89v3.504h7.58v2.378H40.919v.063z"/></g><defs><clipPath id="a"><path fill="#fff" d="M0 8h142v24.633H0z"/></clipPath></defs></svg>