<svg xmlns="http://www.w3.org/2000/svg" viewBox="0 0 534 400" width="534" height="400" preserveAspectRatio="xMidYMid slice" style="width: 100%; height: 100%; transform: translate3d(0px, 0px, 0px);"><defs><clipPath id="__lottie_element_2"><rect width="534" height="400" x="0" y="0"/></clipPath><clipPath id="__lottie_element_4"><path d="M0,0 L534,0 L534,400 L0,400z"/></clipPath><clipPath id="__lottie_element_5"><path fill="#ffffff" clip-rule="nonzero" d=" M526.06298828125,46 C526.06298828125,46 526.06298828125,219 526.06298828125,219 C526.06298828125,219 262.84600830078125,288.6000061035156 262.84600830078125,288.6000061035156 C262.84600830078125,288.6000061035156 262.84600830078125,117.19999694824219 262.84600830078125,117.19999694824219 C262.84600830078125,117.19999694824219 526.06298828125,46 526.06298828125,46" fill-opacity="1"/></clipPath><clipPath id="__lottie_element_8"><path d="M0,0 L534,0 L534,400 L0,400z"/></clipPath><mask id="__lottie_element_11" mask-type="alpha"><g transform="matrix(1,0,0,1,282.5,209)" opacity="1" style="display: block;"><g opacity="1" transform="matrix(1,0,0,1,115.75,31.312000274658203)"><path fill="rgb(119,178,219)" fill-opacity="1" d=" M26.5,-21.687999725341797 C26.5,-21.687999725341797 26.5,-6.046999931335449 26.5,-6.046999931335449 C26.5,-6.046999931335449 -26.5,8.07800006866455 -26.5,8.07800006866455 C-26.5,8.07800006866455 -26.5,-7.561999797821045 -26.5,-7.561999797821045 C-26.5,-7.561999797821045 26.5,-21.687999725341797 26.5,-21.687999725341797z"/><path stroke-linecap="butt" stroke-linejoin="miter" fill-opacity="0" stroke-miterlimit="4" stroke="rgb(255,255,255)" stroke-opacity="1" stroke-width="0" d=" M26.5,-21.687999725341797 C26.5,-21.687999725341797 26.5,-6.046999931335449 26.5,-6.046999931335449 C26.5,-6.046999931335449 -26.5,8.07800006866455 -26.5,8.07800006866455 C-26.5,8.07800006866455 -26.5,-7.561999797821045 -26.5,-7.561999797821045 C-26.5,-7.561999797821045 26.5,-21.687999725341797 26.5,-21.687999725341797z"/></g></g></mask><mask id="__lottie_element_20" mask-type="alpha"><g transform="matrix(1,0,0,1,267,198)" opacity="1" style="display: block;"><g opacity="1" transform="matrix(1,0,0,1,0,0)"><path fill="rgb(255,255,255)" fill-opacity="1" d=" M164.5,-125.5 C164.5,-125.5 -3,-80 -3,-80 C-3,-80 -3,90.5 -3,90.5 C-3,90.5 157.4720001220703,46.895999908447266 157.4720001220703,46.895999908447266 C157.4720001220703,46.895999908447266 160.41900634765625,45.45600128173828 162,43.875 C164.125,41.75 164.5,38.5 164.5,38.5 C164.5,38.5 164.5,-125.5 164.5,-125.5z"/></g></g></mask><clipPath id="__lottie_element_24"><path d="M0,0 L534,0 L534,400 L0,400z"/></clipPath><mask id="__lottie_element_36" mask-type="alpha"><g transform="matrix(1,0,0,1,267,198)" opacity="1" style="display: block;"><g opacity="1" transform="matrix(1,0,0,1,0,0)"><path fill="rgb(255,255,255)" fill-opacity="1" d=" M-1.5,-80.5 C-1.5,-80.5 -158.24400329589844,-36.72800064086914 -158.24400329589844,-36.72800064086914 C-158.24400329589844,-36.72800064086914 -161.5,-36.25 -164.25,-33 C-167,-29.75 -166.5,-25 -166.5,-25 C-166.5,-25 -166.5,136 -166.5,136 C-166.5,136 -1.5,90 -1.5,90 C-1.5,90 -1.5,-80.5 -1.5,-80.5z"/></g></g></mask><clipPath id="__lottie_element_40"><path d="M0,0 L534,0 L534,400 L0,400z"/></clipPath></defs><g clip-path="url(#__lottie_element_2)"><g mask="url(#__lottie_element_36)" style="display: block;"><g clip-path="url(#__lottie_element_40)" transform="matrix(1,0,0,1,0,0)" opacity="1"><g transform="matrix(1,0,0,1,237,203)" opacity="1" style="display: none;"><g opacity="1" transform="matrix(1,0,0,1,-148.5,41)"><path id="color_logo" fill="rgb(0,0,0)" fill-opacity="1" d=" M8.5,-92.5 C8.5,-92.5 8.5,92.5 8.5,92.5 C8.5,92.5 -8.5,92.5 -8.5,92.5 C-8.5,92.5 -8.5,-92.5 -8.5,-92.5 C-8.5,-92.5 8.5,-92.5 8.5,-92.5z"/><path stroke-linecap="butt" stroke-linejoin="miter" fill-opacity="0" stroke-miterlimit="4" stroke="rgb(255,84,84)" stroke-opacity="1" stroke-width="0" d=" M8.5,-92.5 C8.5,-92.5 8.5,92.5 8.5,92.5 C8.5,92.5 -8.5,92.5 -8.5,92.5 C-8.5,92.5 -8.5,-92.5 -8.5,-92.5 C-8.5,-92.5 8.5,-92.5 8.5,-92.5z"/></g></g><g transform="matrix(1,0,0,1,267.02301025390625,289.73779296875)" opacity="1" style="display: block;"><g opacity="1" transform="matrix(1,0,0,1,0,0)"><path id="color_logo" fill="rgb(16,16,16)" fill-opacity="1" d=" M-116.66100311279297,27.08300018310547 C-110.31500244140625,22.861000061035156 -106.68900299072266,16.652000427246094 -106.68900299072266,6.6579999923706055 C-106.68900299072266,6.6579999923706055 -106.68900299072266,-31.957000732421875 -106.68900299072266,-31.957000732421875 C-106.68900299072266,-46.49399948120117 -113.48799896240234,-51.68899917602539 -128.44500732421875,-47.62699890136719 C-128.44500732421875,-47.62699890136719 -157,-39.87099838256836 -157,-39.87099838256836 C-157,-39.87099838256836 -157,119.12999725341797 -157,119.12999725341797 C-157,119.12999725341797 -127.99199676513672,111.25199890136719 -127.99199676513672,111.25199890136719 C-113.71499633789062,107.3740005493164 -106.46299743652344,98.13500213623047 -106.46299743652344,83.82499694824219 C-106.46299743652344,83.82499694824219 -106.46299743652344,41.12200164794922 -106.46299743652344,41.12200164794922 C-106.46299743652344,31.582000732421875 -109.86199951171875,27.507999420166016 -116.66100311279297,27.08300018310547z M-139.5500030517578,-29.165000915527344 C-139.5500030517578,-29.165000915527344 -131.1649932861328,-31.441999435424805 -131.1649932861328,-31.441999435424805 C-126.63300323486328,-32.67300033569336 -124.36599731445312,-31.017000198364258 -124.36599731445312,-26.474000930786133 C-124.36599731445312,-26.474000930786133 -124.36599731445312,14.866000175476074 -124.36599731445312,14.866000175476074 C-124.36599731445312,19.63599967956543 -126.85900115966797,22.812000274658203 -131.6179962158203,24.104000091552734 C-131.6179962158203,24.104000091552734 -139.5500030517578,26.259000778198242 -139.5500030517578,26.259000778198242 C-139.5500030517578,26.259000778198242 -139.5500030517578,-29.165000915527344 -139.5500030517578,-29.165000915527344z M-124.13999938964844,87.94499969482422 C-124.13999938964844,92.48799896240234 -126.17900085449219,95.31300354003906 -130.93800354003906,96.60600280761719 C-130.93800354003906,96.60600280761719 -139.5500030517578,98.94499969482422 -139.5500030517578,98.94499969482422 C-139.5500030517578,98.94499969482422 -139.5500030517578,41.47700119018555 -139.5500030517578,41.47700119018555 C-139.5500030517578,41.47700119018555 -131.39100646972656,39.26100158691406 -131.39100646972656,39.26100158691406 C-126.40499877929688,37.90700149536133 -124.13999938964844,39.5629997253418 -124.13999938964844,44.560001373291016 C-124.13999938964844,44.560001373291016 -124.13999938964844,87.94499969482422 -124.13999938964844,87.94499969482422z"/></g></g><g transform="matrix(1,0,0,1,267,254.22280883789062)" opacity="1" style="display: block;"><g opacity="1" transform="matrix(1,0,0,1,0,0)"><path id="color_logo" fill="rgb(16,16,16)" fill-opacity="1" d=" M-52.21200180053711,15.029999732971191 C-45.867000579833984,10.807999610900879 -42.24100112915039,4.598999977111816 -42.24100112915039,-5.623000144958496 C-42.24100112915039,-5.623000144958496 -42.24100112915039,-49.46099853515625 -42.24100112915039,-49.46099853515625 C-42.24100112915039,-63.99800109863281 -48.58599853515625,-69.31700134277344 -63.77000045776367,-65.19300079345703 C-63.77000045776367,-65.19300079345703 -92.77799987792969,-57.31399917602539 -92.77799987792969,-57.31399917602539 C-92.77799987792969,-57.31399917602539 -92.77799987792969,101.68699645996094 -92.77799987792969,101.68699645996094 C-92.77799987792969,101.68699645996094 -75.10199737548828,96.88600158691406 -75.10199737548828,96.88600158691406 C-75.10199737548828,96.88600158691406 -75.10199737548828,29.423999786376953 -75.10199737548828,29.423999786376953 C-75.10199737548828,29.423999786376953 -67.16999816894531,27.270000457763672 -67.16999816894531,27.270000457763672 C-62.183998107910156,25.916000366210938 -59.691001892089844,27.510000228881836 -59.691001892089844,32.73400115966797 C-59.691001892089844,32.73400115966797 -59.691001892089844,92.70099639892578 -59.691001892089844,92.70099639892578 C-59.691001892089844,92.70099639892578 -42.013999938964844,87.9000015258789 -42.013999938964844,87.9000015258789 C-42.013999938964844,87.9000015258789 -42.013999938964844,27.479000091552734 -42.013999938964844,27.479000091552734 C-42.013999938964844,18.847999572753906 -45.1870002746582,15.166000366210938 -52.21200180053711,15.029999732971191z M-59.917999267578125,2.5859999656677246 C-59.917999267578125,7.583000183105469 -62.183998107910156,10.470000267028809 -67.16999816894531,11.824000358581543 C-67.16999816894531,11.824000358581543 -75.10199737548828,13.977999687194824 -75.10199737548828,13.977999687194824 C-75.10199737548828,13.977999687194824 -75.10199737548828,-46.21500015258789 -75.10199737548828,-46.21500015258789 C-75.10199737548828,-46.21500015258789 -66.71600341796875,-48.492000579833984 -66.71600341796875,-48.492000579833984 C-61.957000732421875,-49.78499984741211 -59.917999267578125,-48.29499816894531 -59.917999267578125,-43.75199890136719 C-59.917999267578125,-43.75199890136719 -59.917999267578125,2.5859999656677246 -59.917999267578125,2.5859999656677246z"/></g></g><g transform="matrix(1,0,0,1,266.7601623535156,234.39820861816406)" opacity="1" style="display: block;"><g opacity="1" transform="matrix(1,0,0,1,0,0)"><path id="color_logo" fill="rgb(16,16,16)" fill-opacity="1" d=" M5.664000034332275,52.4630012512207 C5.664000034332275,57.00600051879883 3.624000072479248,59.83100128173828 -1.1349999904632568,61.124000549316406 C-1.1349999904632568,61.124000549316406 -3.8540000915527344,61.86199951171875 -3.8540000915527344,61.86199951171875 C-8.61299991607666,63.154998779296875 -10.652999877929688,61.4370002746582 -10.652999877929688,56.89400100708008 C-10.652999877929688,56.89400100708008 -10.652999877929688,-79.62000274658203 -10.652999877929688,-79.62000274658203 C-10.652999877929688,-79.62000274658203 -28.329999923706055,-74.81900024414062 -28.329999923706055,-74.81900024414062 C-28.329999923706055,-74.81900024414062 -28.329999923706055,62.37699890136719 -28.329999923706055,62.37699890136719 C-28.329999923706055,76.91400146484375 -21.304000854492188,82.2750015258789 -6.800000190734863,78.33499908447266 C-6.800000190734863,78.33499908447266 1.8109999895095825,75.99600219726562 1.8109999895095825,75.99600219726562 C16.315000534057617,72.05699920654297 23.340999603271484,62.880001068115234 23.340999603271484,48.34299850463867 C23.340999603271484,48.34299850463867 23.340999603271484,-88.85199737548828 23.340999603271484,-88.85199737548828 C23.340999603271484,-88.85199737548828 5.664000034332275,-84.052001953125 5.664000034332275,-84.052001953125 C5.664000034332275,-84.052001953125 5.664000034332275,52.4630012512207 5.664000034332275,52.4630012512207z"/></g></g></g></g><g mask="url(#__lottie_element_20)" style="display: block;"><g clip-path="url(#__lottie_element_24)" transform="matrix(1,0,0,1,0,0)" opacity="1"><g transform="matrix(1,0,0,1,266.7601623535156,234.39820861816406)" opacity="1" style="display: block;"><g opacity="1" transform="matrix(1,0,0,1,0,0)"><path id="color_logo" fill="rgb(16,16,16)" fill-opacity="1" d=" M5.664000034332275,52.4630012512207 C5.664000034332275,57.00600051879883 3.624000072479248,59.83100128173828 -1.1349999904632568,61.124000549316406 C-1.1349999904632568,61.124000549316406 -3.8540000915527344,61.86199951171875 -3.8540000915527344,61.86199951171875 C-8.61299991607666,63.154998779296875 -10.652999877929688,61.4370002746582 -10.652999877929688,56.89400100708008 C-10.652999877929688,56.89400100708008 -10.652999877929688,-79.62000274658203 -10.652999877929688,-79.62000274658203 C-10.652999877929688,-79.62000274658203 -28.329999923706055,-74.81900024414062 -28.329999923706055,-74.81900024414062 C-28.329999923706055,-74.81900024414062 -28.329999923706055,62.37699890136719 -28.329999923706055,62.37699890136719 C-28.329999923706055,76.91400146484375 -21.304000854492188,82.2750015258789 -6.800000190734863,78.33499908447266 C-6.800000190734863,78.33499908447266 1.8109999895095825,75.99600219726562 1.8109999895095825,75.99600219726562 C16.315000534057617,72.05699920654297 23.340999603271484,62.880001068115234 23.340999603271484,48.34299850463867 C23.340999603271484,48.34299850463867 23.340999603271484,-88.85199737548828 23.340999603271484,-88.85199737548828 C23.340999603271484,-88.85199737548828 5.664000034332275,-84.052001953125 5.664000034332275,-84.052001953125 C5.664000034332275,-84.052001953125 5.664000034332275,52.4630012512207 5.664000034332275,52.4630012512207z"/></g></g><g transform="matrix(1,0,0,1,267,221.9362335205078)" opacity="1" style="display: block;"><g opacity="1" transform="matrix(1,0,0,1,0,0)"><path id="color_logo" fill="rgb(16,16,16)" fill-opacity="1" d=" M74.6449966430664,-30.781999588012695 C74.6449966430664,-30.781999588012695 75.5510025024414,-0.13699999451637268 75.5510025024414,-0.13699999451637268 C75.5510025024414,-0.13699999451637268 58.10100173950195,-98.29399871826172 58.10100173950195,-98.29399871826172 C58.10100173950195,-98.29399871826172 37.47800064086914,-92.69200134277344 37.47800064086914,-92.69200134277344 C37.47800064086914,-92.69200134277344 37.47800064086914,66.30899810791016 37.47800064086914,66.30899810791016 C37.47800064086914,66.30899810791016 53.34199905395508,62 53.34199905395508,62 C53.34199905395508,62 53.11600112915039,-12.668999671936035 53.11600112915039,-12.668999671936035 C53.11600112915039,-12.668999671936035 52.20899963378906,-50.35599899291992 52.20899963378906,-50.35599899291992 C52.20899963378906,-50.35599899291992 71.24500274658203,57.13800048828125 71.24500274658203,57.13800048828125 C71.24500274658203,57.13800048828125 90.50900268554688,51.90599822998047 90.50900268554688,51.90599822998047 C90.50900268554688,51.90599822998047 90.50900268554688,-107.09600067138672 90.50900268554688,-107.09600067138672 C90.50900268554688,-107.09600067138672 74.6449966430664,-102.78700256347656 74.6449966430664,-102.78700256347656 C74.6449966430664,-102.78700256347656 74.6449966430664,-30.781999588012695 74.6449966430664,-30.781999588012695z"/></g></g><g transform="matrix(1,0,0,1,591.5,109.5)" opacity="1" style="display: none;"><g opacity="1" transform="matrix(1,0,0,1,-148.5,41)"><path id="color_logo" fill="rgb(0,0,0)" fill-opacity="1" d=" M8.5,-92.5 C8.5,-92.5 8.5,92.5 8.5,92.5 C8.5,92.5 -8.5,92.5 -8.5,92.5 C-8.5,92.5 -8.5,-92.5 -8.5,-92.5 C-8.5,-92.5 8.5,-92.5 8.5,-92.5z"/><path stroke-linecap="butt" stroke-linejoin="miter" fill-opacity="0" stroke-miterlimit="4" stroke="rgb(255,84,84)" stroke-opacity="1" stroke-width="0" d=" M8.5,-92.5 C8.5,-92.5 8.5,92.5 8.5,92.5 C8.5,92.5 -8.5,92.5 -8.5,92.5 C-8.5,92.5 -8.5,-92.5 -8.5,-92.5 C-8.5,-92.5 8.5,-92.5 8.5,-92.5z"/></g></g></g></g><g clip-path="url(#__lottie_element_4)" style="display: block;" transform="matrix(1,0,0,1,0,0)" opacity="1"><g clip-path="url(#__lottie_element_5)"><g transform="matrix(1,0,0,1,267,219.2026824951172)" opacity="1" style="display: block;"><g opacity="1" transform="matrix(1,0,0,1,0,0)"><path id="color_logo" fill="rgb(16,16,16)" fill-opacity="1" d=" M135.24099731445312,-119.24500274658203 C135.24099731445312,-119.24500274658203 125.72200012207031,-116.66000366210938 125.72200012207031,-116.66000366210938 C111.44499969482422,-112.78199768066406 104.19300079345703,-103.54399871826172 104.19300079345703,-89.23400115966797 C104.19300079345703,-89.23400115966797 104.19300079345703,-5.416999816894531 104.19300079345703,-5.416999816894531 C104.19300079345703,9.119999885559082 111.44499969482422,14.418999671936035 125.72200012207031,10.541000366210938 C125.72200012207031,10.541000366210938 135.24099731445312,7.955999851226807 135.24099731445312,7.955999851226807 C149.7449951171875,4.017000198364258 156.77000427246094,-5.159999847412109 156.77000427246094,-19.69700050354004 C156.77000427246094,-19.69700050354004 156.77000427246094,-103.51399993896484 156.77000427246094,-103.51399993896484 C156.77000427246094,-117.8239974975586 149.7449951171875,-123.18399810791016 135.24099731445312,-119.24500274658203z M139.09300231933594,-15.57800006866455 C139.09300231933594,-11.03499984741211 136.82699584960938,-8.375 132.2949981689453,-7.144000053405762 C132.2949981689453,-7.144000053405762 128.66900634765625,-6.158999919891357 128.66900634765625,-6.158999919891357 C124.13600158691406,-4.927999973297119 122.09600067138672,-6.418000221252441 122.09600067138672,-10.961000442504883 C122.09600067138672,-10.961000442504883 122.09600067138672,-93.18800354003906 122.09600067138672,-93.18800354003906 C122.09600067138672,-97.95800018310547 124.13600158691406,-100.55599975585938 128.66900634765625,-101.78700256347656 C128.66900634765625,-101.78700256347656 132.2949981689453,-102.77200317382812 132.2949981689453,-102.77200317382812 C136.82699584960938,-104.00299835205078 139.09300231933594,-102.5739974975586 139.09300231933594,-97.80400085449219 C139.09300231933594,-97.80400085449219 139.09300231933594,-15.57800006866455 139.09300231933594,-15.57800006866455z"/></g></g><g clip-path="url(#__lottie_element_8)" style="display: block;" transform="matrix(1,0,0,1,0,16.4241943359375)" opacity="1"><g mask="url(#__lottie_element_11)" style="display: block;"><g transform="matrix(0.9111499786376953,0,0,1,278.0686340332031,200)" opacity="1"><g opacity="1" transform="matrix(1,0,0,1,131.25,31.625)"><path fill="rgb(253,90,30)" fill-opacity="1" d=" M32,-20.625 C32,-20.625 32,20.625 32,20.625 C32,20.625 -32,20.625 -32,20.625 C-32,20.625 -32,-20.625 -32,-20.625 C-32,-20.625 32,-20.625 32,-20.625z"/></g></g></g></g></g></g></g></svg>